REM DIRINDEX 1\2,1\3,1\4,1\5
REM DIRNAME folder01,folder02,folder03,folder04,folder05
TITLE ""
FILE "1800_074.mp3" MP3
  TRACK 01 AUDIO
    TITLE "2:cjc044_1881"
    INDEX 01 00:00:00
  TRACK 02 AUDIO
    TITLE "0:"
    INDEX 01 00:01:05
  TRACK 03 AUDIO
    TITLE "3:cjc044_1882"
    INDEX 01 00:01:64
  TRACK 04 AUDIO
    TITLE "0:"
    INDEX 01 00:03:02
  TRACK 05 AUDIO
    TITLE "4:cjc044_1883"
    INDEX 01 00:03:63
  TRACK 06 AUDIO
    TITLE "0:"
    INDEX 01 00:05:03
  TRACK 07 AUDIO
    TITLE "5:cjc044_1884"
    INDEX 01 00:05:54
  TRACK 08 AUDIO
    TITLE "0:"
    INDEX 01 00:08:24
  TRACK 09 AUDIO
    TITLE "2:cjc044_1885"
    INDEX 01 00:10:06
  TRACK 10 AUDIO
    TITLE "0:"
    INDEX 01 00:11:44
  TRACK 11 AUDIO
    TITLE "3:cjc044_1886"
    INDEX 01 00:12:24
  TRACK 12 AUDIO
    TITLE "0:"
    INDEX 01 00:13:33
  TRACK 13 AUDIO
    TITLE "4:cjc044_1887"
    INDEX 01 00:14:23
  TRACK 14 AUDIO
    TITLE "0:"
    INDEX 01 00:15:60
  TRACK 15 AUDIO
    TITLE "5:cjc044_1888"
    INDEX 01 00:16:42
  TRACK 16 AUDIO
    TITLE "0:"
    INDEX 01 00:20:32
  TRACK 17 AUDIO
    TITLE "2:cjc044_1889"
    INDEX 01 00:22:21
  TRACK 18 AUDIO
    TITLE "0:"
    INDEX 01 00:23:42
  TRACK 19 AUDIO
    TITLE "3:cjc044_1890"
    INDEX 01 00:24:18
  TRACK 20 AUDIO
    TITLE "0:"
    INDEX 01 00:25:31
  TRACK 21 AUDIO
    TITLE "4:cjc044_1891"
    INDEX 01 00:26:17
  TRACK 22 AUDIO
    TITLE "0:"
    INDEX 01 00:27:39
  TRACK 23 AUDIO
    TITLE "5:cjc044_1892"
    INDEX 01 00:28:12
  TRACK 24 AUDIO
    TITLE "0:"
    INDEX 01 00:31:43
  TRACK 25 AUDIO
    TITLE "2:cjc044_1893"
    INDEX 01 00:33:28
  TRACK 26 AUDIO
    TITLE "0:"
    INDEX 01 00:34:49
  TRACK 27 AUDIO
    TITLE "3:cjc044_1894"
    INDEX 01 00:35:31
  TRACK 28 AUDIO
    TITLE "0:"
    INDEX 01 00:36:36
  TRACK 29 AUDIO
    TITLE "4:cjc044_1895"
    INDEX 01 00:37:18
  TRACK 30 AUDIO
    TITLE "0:"
    INDEX 01 00:38:41
  TRACK 31 AUDIO
    TITLE "5:cjc044_1896"
    INDEX 01 00:39:21
  TRACK 32 AUDIO
    TITLE "0:"
    INDEX 01 00:41:55
  TRACK 33 AUDIO
    TITLE "2:cjc044_1897"
    INDEX 01 00:43:35
  TRACK 34 AUDIO
    TITLE "0:"
    INDEX 01 00:44:38
  TRACK 35 AUDIO
    TITLE "3:cjc044_1898"
    INDEX 01 00:45:22
  TRACK 36 AUDIO
    TITLE "0:"
    INDEX 01 00:46:23
  TRACK 37 AUDIO
    TITLE "4:cjc044_1899"
    INDEX 01 00:47:05
  TRACK 38 AUDIO
    TITLE "0:"
    INDEX 01 00:48:06
  TRACK 39 AUDIO
    TITLE "5:cjc044_1900"
    INDEX 01 00:48:65
  TRACK 40 AUDIO
    TITLE "0:"
    INDEX 01 00:51:65
  TRACK 41 AUDIO
    TITLE "2:cjc044_1901"
    INDEX 01 00:53:53
  TRACK 42 AUDIO
    TITLE "0:"
    INDEX 01 00:54:58
  TRACK 43 AUDIO
    TITLE "3:cjc044_1902"
    INDEX 01 00:55:42
  TRACK 44 AUDIO
    TITLE "0:"
    INDEX 01 00:56:39
  TRACK 45 AUDIO
    TITLE "4:cjc044_1903"
    INDEX 01 00:57:23
  TRACK 46 AUDIO
    TITLE "0:"
    INDEX 01 00:58:28
  TRACK 47 AUDIO
    TITLE "5:cjc044_1904"
    INDEX 01 00:59:10
  TRACK 48 AUDIO
    TITLE "0:"
    INDEX 01 01:02:57
  TRACK 49 AUDIO
    TITLE "2:cjc044_1905"
    INDEX 01 01:04:45
  TRACK 50 AUDIO
    TITLE "0:"
    INDEX 01 01:05:42
  TRACK 51 AUDIO
    TITLE "3:cjc044_1906"
    INDEX 01 01:06:22
  TRACK 52 AUDIO
    TITLE "0:"
    INDEX 01 01:07:37
  TRACK 53 AUDIO
    TITLE "4:cjc044_1907"
    INDEX 01 01:08:23
  TRACK 54 AUDIO
    TITLE "0:"
    INDEX 01 01:09:20
  TRACK 55 AUDIO
    TITLE "5:cjc044_1908"
    INDEX 01 01:09:71
  TRACK 56 AUDIO
    TITLE "0:"
    INDEX 01 01:12:64
  TRACK 57 AUDIO
    TITLE "2:cjc044_1909"
    INDEX 01 01:14:51
  TRACK 58 AUDIO
    TITLE "0:"
    INDEX 01 01:15:68
  TRACK 59 AUDIO
    TITLE "3:cjc044_1910"
    INDEX 01 01:16:46
  TRACK 60 AUDIO
    TITLE "0:"
    INDEX 01 01:17:65
  TRACK 61 AUDIO
    TITLE "4:cjc044_1911"
    INDEX 01 01:18:45
  TRACK 62 AUDIO
    TITLE "0:"
    INDEX 01 01:19:64
  TRACK 63 AUDIO
    TITLE "5:cjc044_1912"
    INDEX 01 01:20:36
  TRACK 64 AUDIO
    TITLE "0:"
    INDEX 01 01:23:42
